<?xml version="1.0" encoding="UTF-8"?>
<svg id="Livello_1" xmlns="http://www.w3.org/2000/svg" xmlns:xlink="http://www.w3.org/1999/xlink" version="1.1" viewBox="0 0 1839.6 632.7">
  <!-- Generator: Adobe Illustrator 30.0.0, SVG Export Plug-In . SVG Version: 2.1.1 Build 123)  -->
  <defs>
    <style>
      .st0 {
        fill: url(#Sfumatura_senza_nome_20);
      }

      .st1 {
        fill: url(#Sfumatura_senza_nome_53);
      }

      .st2 {
        fill: url(#Sfumatura_senza_nome_60);
      }

      .st3 {
        fill: #4da358;
      }

      .st4 {
        fill: #20582b;
      }

      .st5 {
        fill: url(#Sfumatura_senza_nome_201);
      }

      .st6 {
        fill: url(#Sfumatura_senza_nome_202);
      }
    </style>
    <linearGradient id="Sfumatura_senza_nome_20" data-name="Sfumatura senza nome 20" x1="907.8" y1="236.6" x2="860.3" y2="157.5" gradientUnits="userSpaceOnUse">
      <stop offset="0" stop-color="#003611"/>
      <stop offset="1" stop-color="#005c20"/>
    </linearGradient>
    <linearGradient id="Sfumatura_senza_nome_53" data-name="Sfumatura senza nome 53" x1="935.6" y1="58" x2="1007.9" y2="-8.4" gradientUnits="userSpaceOnUse">
      <stop offset=".1" stop-color="#005c20"/>
      <stop offset=".9" stop-color="#01a348"/>
    </linearGradient>
    <linearGradient id="Sfumatura_senza_nome_201" data-name="Sfumatura senza nome 20" x1="971.2" y1="155" x2="940.8" y2="210.5" xlink:href="#Sfumatura_senza_nome_20"/>
    <linearGradient id="Sfumatura_senza_nome_202" data-name="Sfumatura senza nome 20" x1="1010.2" y1="114.4" x2="1033.4" y2="90.4" xlink:href="#Sfumatura_senza_nome_20"/>
    <radialGradient id="Sfumatura_senza_nome_60" data-name="Sfumatura senza nome 60" cx="963.7" cy="107.6" fx="963.7" fy="107.6" r="106.9" gradientTransform="translate(340.9 -629.1) rotate(47.2) scale(1 .4)" gradientUnits="userSpaceOnUse">
      <stop offset=".1" stop-color="#01a348"/>
      <stop offset=".4" stop-color="#019d45"/>
      <stop offset=".8" stop-color="#028f3f"/>
      <stop offset=".9" stop-color="#03883c"/>
    </radialGradient>
  </defs>
  <g>
    <g>
      <path class="st4" d="M63.9,516h-7.8L0,392.2h9.9l50.2,110.6,48.6-110.6h9.9l-54.6,123.8Z"/>
      <path class="st4" d="M124.1,516v-123.8h9.3v123.8h-9.3Z"/>
      <path class="st4" d="M201.2,517.3c-15.9,0-28.7-2.9-38.3-8.6-12.1-6.9-18.1-17.8-18.1-32.7v-4.4h9.3v3.7c0,22.3,15.8,33.4,47.3,33.4s19.9-1.6,27.2-4.9c9.4-4.3,14.1-10.8,14.1-19.7s-1.7-11-5.1-14.2c-2.8-2.7-7.6-5-14.4-7.1-3.7-1-12.3-2.9-25.9-5.8-15.7-3.3-26.3-6.3-31.8-9.1-11.1-5.6-16.6-13.9-16.6-25,0-21.2,16.3-31.8,48.9-31.8s51.3,13.3,51.7,39.8h-9.1c-.7-12.8-5.1-21.4-13.1-25.7-6.6-3.7-16.4-5.5-29.4-5.5-26.4,0-39.6,7.7-39.6,23.2s3.6,13.2,10.8,17c5,2.6,13.4,4.9,25.4,7.1,22.2,3.9,36.9,8.1,44.4,12.6,8.9,5.4,13.3,13.8,13.3,25.2s-5.9,20.1-17.7,25.9c-9.1,4.5-20.1,6.8-33,6.8Z"/>
      <path class="st4" d="M265.8,516v-123.8h9.3v123.8h-9.3Z"/>
      <path class="st4" d="M399.9,500.3c-11.7,11.3-27.8,17-48.1,17s-36.5-5.6-48.1-16.8c-11.6-11.2-17.4-26.7-17.4-46.4s5.8-34.6,17.5-45.3c11.7-10.7,27.7-16.1,48-16.1s36.4,5.4,48.1,16.1c11.7,10.7,17.6,25.8,17.6,45.3s-5.9,34.9-17.6,46.2ZM393.3,415.1c-9.9-9.2-23.8-13.8-41.5-13.8s-31.4,4.6-41.4,13.8c-9.9,9.2-14.9,22.2-14.9,39s5,30.1,15,39.9c10,9.8,23.7,14.7,41.3,14.7s31.6-4.8,41.5-14.5c9.9-9.7,14.9-23,14.9-40.1s-5-29.8-14.9-39Z"/>
      <path class="st4" d="M527.6,516l-89.8-109.9v109.9h-9.3v-123.8h9.7c10.5,13.3,25.4,31.6,44.9,55,21.1,25.1,36,43.2,44.9,54.4v-109.4h9.3v123.8h-9.7Z"/>
      <path class="st4" d="M552.6,516v-123.8h94.2v8.6h-85.1v46.6h75.4v8.4h-75.4v51.7h86v8.6h-95.1Z"/>
    </g>
    <g>
      <path class="st4" d="M772.8,517.3c-16.6,0-30.1-2.8-40.5-8.4-13.4-7.3-20.1-18.7-20.1-34.3v-8h17.7v7.5c0,18.3,14.4,27.4,43.1,27.4s19-1.5,25.6-4.4c7.8-3.3,11.7-8.2,11.7-14.8s-1.2-8.2-3.6-10.4c-2.4-2.2-6.8-4.1-13-5.8-3.7-1-12.2-2.8-25.7-5.5-15.9-3.2-26.8-6.1-32.7-8.9-12.5-6-18.8-15-18.8-27,0-22.4,17.6-33.6,52.9-33.6s55.4,15,55.9,45.1h-17.2c-.9-12.9-4.6-21.1-11.3-24.5-6-3.2-15.1-4.7-27.4-4.7-23.6,0-35.4,5.9-35.4,17.7s2.8,9.8,8.4,12.6c4.6,2.2,12.7,4.3,24.3,6.2,22.6,3.8,37.9,7.8,45.6,12.2,10.3,5.8,15.5,14.9,15.5,27s-6.5,21.5-19.5,27.6c-9.9,4.7-21.7,7.1-35.4,7.1Z"/>
      <path class="st4" d="M957.2,500.3c-12.6,11.3-29.6,17-51,17s-38.6-5.6-51-16.9c-12.5-11.3-18.7-26.6-18.7-46.1s6.4-34.7,19.2-45.6c12.3-10.6,29.1-15.9,50.6-15.9s38.3,5.3,50.8,15.9c12.8,11,19.2,26.2,19.2,45.6s-6.3,34.7-18.9,46ZM944.9,420.4c-9.1-7.8-22-11.8-38.7-11.8s-29.5,4-38.5,11.9c-9,7.9-13.5,19.2-13.5,33.8s4.6,26.1,13.7,34.5c9.1,8.4,21.9,12.6,38.3,12.6s29.6-4.2,38.7-12.5c9.1-8.3,13.7-19.9,13.7-34.6s-4.6-26-13.7-33.9Z"/>
      <path class="st4" d="M1045.1,517.3c-16.6,0-30.1-2.8-40.5-8.4-13.4-7.3-20.1-18.7-20.1-34.3v-8h17.7v7.5c0,18.3,14.4,27.4,43.1,27.4s19-1.5,25.6-4.4c7.8-3.3,11.7-8.2,11.7-14.8s-1.2-8.2-3.6-10.4c-2.4-2.2-6.8-4.1-13-5.8-3.7-1-12.2-2.8-25.7-5.5-15.9-3.2-26.8-6.1-32.7-8.9-12.5-6-18.8-15-18.8-27,0-22.4,17.6-33.6,52.9-33.6s55.4,15,55.9,45.1h-17.2c-.9-12.9-4.6-21.1-11.3-24.5-6-3.2-15.1-4.7-27.4-4.7-23.6,0-35.4,5.9-35.4,17.7s2.8,9.8,8.4,12.6c4.6,2.2,12.7,4.3,24.3,6.2,22.6,3.8,37.9,7.8,45.6,12.2,10.3,5.8,15.5,14.9,15.5,27s-6.5,21.5-19.5,27.6c-9.9,4.7-21.7,7.1-35.4,7.1Z"/>
      <path class="st4" d="M1165.4,408.1v107.9h-17.5v-107.9h-47.5v-15.9h112.3v15.9h-47.3Z"/>
      <path class="st4" d="M1219.6,516v-123.8h102.4v15.9h-85.1v35.6h75.4v15.9h-75.4v40.5h86v15.9h-103.3Z"/>
      <path class="st4" d="M1430.9,516l-83.6-96v96h-17.5v-123.8h15.7c10.6,12.7,24.6,28.8,42.2,48.6,21.2,23.7,35.1,39.4,41.6,46.9v-95.5h17.5v123.8h-15.9Z"/>
      <path class="st4" d="M1456.3,516v-123.8h17.5v123.8h-17.5Z"/>
      <path class="st4" d="M1579,508.7c-9,4.9-20.3,7.3-34,7.3h-63.4v-123.8h65.7c12.3,0,22.5,2.6,30.7,7.7,9.9,6.1,14.8,15,14.8,26.7s-4.8,17.9-14.4,24.1c12.3,5.8,18.4,15.6,18.4,29.2s-6,22.5-17.9,28.8ZM1567.5,412.5c-5.2-3-12.1-4.5-20.4-4.5h-47.8v35.6h47.7c8.4,0,15.2-1.5,20.5-4.6,5.3-3,7.9-7.5,7.9-13.3s-2.6-10.3-7.8-13.2ZM1570.6,464.7c-6-3.3-14-4.9-24-4.9h-47.3v40.3h48c9.4,0,16.9-1.6,22.6-4.9,6.4-3.5,9.7-8.6,9.7-15.2s-3-12-9-15.3Z"/>
      <path class="st4" d="M1605.2,516v-123.8h17.5v123.8h-17.5Z"/>
      <path class="st4" d="M1634.5,516v-123.8h17.5v107.9h78.1v15.9h-95.7Z"/>
      <path class="st4" d="M1736.3,516v-123.8h102.4v15.9h-85.1v35.6h75.4v15.9h-75.4v40.5h86v15.9h-103.3Z"/>
    </g>
  </g>
  <g>
    <path class="st3" d="M187.7,593.6h-21.1v24.5h-2.9v-55.1h24.9c13,0,19.5,5.1,19.5,15.4s-2.2,9.1-6.7,11.8c-3.6,2.2-8.2,3.3-13.7,3.3ZM189.1,565.8h-22.5v25.1h22.6c4.3,0,7.9-.9,10.8-2.8,3.4-2.2,5.1-5.4,5.1-9.4,0-8.6-5.3-12.8-16-12.8Z"/>
    <path class="st3" d="M219.6,587.1c.9-1.9,2.2-3.7,4.1-5.3,3.5-2.9,7.9-4.3,13.2-4.3v2.7c-6.2,0-10.8,2.4-13.7,7.1-2.4,3.9-3.6,8.9-3.6,15v15.8h-2.9v-39.6h2.9v8.6Z"/>
    <path class="st3" d="M262.9,619.1c-6.3,0-11.3-1.9-14.9-5.8-3.6-3.7-5.4-8.7-5.4-14.9s1.9-11.3,5.6-15.1c3.7-3.8,8.7-5.7,14.9-5.7s11.2,1.9,14.9,5.7c3.7,3.8,5.5,8.8,5.5,15.1s-1.9,11.2-5.6,15c-3.7,3.8-8.7,5.7-14.9,5.7ZM263,580.2c-5.4,0-9.7,1.7-12.8,5-3.1,3.3-4.7,7.7-4.7,13.2s1.6,9.8,4.7,13.1c3.1,3.3,7.4,5,12.8,5s9.6-1.7,12.8-5c3.2-3.3,4.8-7.7,4.8-13.1s-1.6-9.9-4.7-13.2c-3.1-3.3-7.4-4.9-12.9-4.9Z"/>
    <path class="st3" d="M309.1,632.7c-4.7,0-8.6-.9-11.6-2.8-3.6-2.2-5.5-5.8-5.8-10.6h2.9c.6,7.1,5.4,10.7,14.5,10.7s15.8-4.5,15.8-13.6v-7.3c-1.6,2.8-3.9,4.9-6.9,6.4-3,1.5-6.2,2.3-9.6,2.3-5.9,0-10.5-1.9-13.9-5.6-3.4-3.7-5.1-8.5-5.1-14.4s1.7-11,5.2-14.7c3.5-3.7,8.3-5.6,14.4-5.6s6.6.8,9.3,2.4c3,1.6,5.2,3.9,6.7,6.7v-8.1h2.9v38c0,10.8-6.3,16.2-18.8,16.2ZM308.8,580.2c-5,0-9.1,1.7-12.2,5.1-2.9,3.3-4.3,7.4-4.3,12.4s1.3,9.1,4,12.3c2.9,3.4,6.8,5.1,11.9,5.1s9.2-1.6,12.3-4.9c3-3.1,4.5-7.2,4.5-12.3s-1.5-9.2-4.4-12.6c-2.9-3.4-6.9-5.2-11.8-5.2Z"/>
    <path class="st3" d="M338.6,599.2c.3,11.4,6,17.1,16.9,17.1s6.9-.8,9.8-2.5c2.8-1.7,4.9-4.1,6.1-7.4h3c-1.4,4.5-3.9,7.8-7.5,9.8-3.2,1.8-7.1,2.8-11.6,2.8-6.5,0-11.5-1.9-14.9-5.7-3.1-3.6-4.7-8.6-4.7-14.9s1.8-11.2,5.4-15.1c3.6-3.9,8.5-5.8,14.6-5.8s10.9,1.7,14.5,5.2c3.6,3.5,5.4,8.2,5.4,14.1v2.3h-37.1ZM355.7,580.2c-5,0-9,1.5-12,4.4-3,3-4.7,6.9-5.1,11.9h33.7c-.1-5-1.7-8.9-4.6-11.9-3-3-7-4.4-11.9-4.4Z"/>
    <path class="st3" d="M391.4,583.2v34.9h-2.8l-.2-34.9h-8v-2.8h8v-12.2h2.9v12.2h8.2v2.8h-8.2Z"/>
    <path class="st3" d="M415.2,583.2v34.9h-2.8l-.2-34.9h-8v-2.8h8v-12.2h2.9v12.2h8.2v2.8h-8.2Z"/>
    <path class="st3" d="M432.3,570.2c-.6,0-1-.4-1.3-1.1v-5.5c.3-.8.8-1.2,1.3-1.2s1,.4,1.6,1.1v5.7c-.5.7-1.1,1.1-1.6,1.1ZM431,618.2v-40h2.9v40h-2.9Z"/>
    <path class="st3" d="M478.6,618.2v-8.9c-3.5,6.6-9.2,9.8-17.1,9.8s-10.9-2-14.4-6c-3.3-3.7-5-8.6-5-14.6s1.7-11.1,5-14.9c3.6-4,8.5-6,14.7-6s13.6,3.2,16.8,9.6v-9.4h2.9v40.5h-2.9ZM461.4,580.2c-5.2,0-9.3,1.8-12.3,5.4-2.8,3.4-4.1,7.6-4.1,12.8s1.4,9.4,4.1,12.7c3,3.5,7.1,5.3,12.3,5.3s9.4-1.8,12.6-5.3c3.1-3.4,4.6-7.6,4.6-12.7s-1.5-10-4.5-13.3c-3-3.3-7.2-4.9-12.8-4.9Z"/>
    <path class="st3" d="M547.9,618.2v-26.1c0-7.9-3.7-11.9-11.2-11.9s-7.3,1.2-9.7,3.5c-2.4,2.4-3.7,5.5-3.7,9.5v24.9h-2.9v-26.1c0-7.9-3.8-11.9-11.5-11.9s-7.6,1.6-10.1,4.9c-2.1,2.9-3.2,6.5-3.2,10.8v22.3h-2.9v-39.6h2.9v6.9c2.6-5.3,7.3-7.9,14.1-7.9s10.7,2.7,12.8,8c2.4-5.4,7.1-8,14.1-8s14.3,4.6,14.3,13.7v26.9h-2.9Z"/>
    <path class="st3" d="M579.5,619.1c-6.3,0-11.3-1.9-14.9-5.8-3.6-3.7-5.4-8.7-5.4-14.9s1.9-11.3,5.6-15.1c3.7-3.8,8.7-5.7,14.9-5.7s11.2,1.9,14.9,5.7c3.7,3.8,5.5,8.8,5.5,15.1s-1.9,11.2-5.6,15c-3.7,3.8-8.7,5.7-14.9,5.7ZM579.6,580.2c-5.4,0-9.7,1.7-12.8,5-3.1,3.3-4.7,7.7-4.7,13.2s1.6,9.8,4.7,13.1c3.1,3.3,7.4,5,12.8,5s9.6-1.7,12.8-5c3.2-3.3,4.8-7.7,4.8-13.1s-1.6-9.9-4.7-13.2c-3.1-3.3-7.4-4.9-12.9-4.9Z"/>
    <path class="st3" d="M657.1,618.2h-3.7l-10.7-39.6h4.8l8.9,34.4,22.4-34.4h4.5l-26.2,39.6Z"/>
    <path class="st3" d="M684.8,599.8c-.2,1.4-.3,2.7-.3,4,0,7.6,4.5,11.5,13.4,11.5s13.7-3.2,17.5-9.7h4.2c-4.7,9-12.3,13.5-22.7,13.5s-9.1-1.2-11.9-3.5c-3.1-2.5-4.6-6.2-4.6-11s.2-3.9.7-6.1c1.3-6.2,4.2-11.3,8.8-15.1,4.5-3.8,10-5.8,16.2-5.8s9,1.2,12,3.5c3.4,2.5,5,6.2,5,11s-.2,3.1-.6,4.9l-.6,2.8h-37.1ZM705.3,581.4c-4.7,0-8.7,1.3-12.2,3.9-3.5,2.6-5.9,6.2-7.4,10.7h32.5c.2-1,.2-2,.2-3,0-3.8-1.2-6.7-3.7-8.8-2.3-1.9-5.5-2.8-9.4-2.8Z"/>
    <path class="st3" d="M732.1,602.3l-3.4,15.9h-4.1l8.4-39.7h4.1l-1.5,6.7c1.1-1.2,2.4-2.4,3.8-3.3,4.2-2.9,9.2-4.3,15.1-4.3l-.8,3.8c-11.5,0-18.8,7-21.7,20.9Z"/>
    <path class="st3" d="M786.9,618.2l1.5-7.1c-4.8,5.4-10.8,8-18.2,8s-10.9-2-13.6-6.1c-1.7-2.5-2.6-5.6-2.6-9.2s.2-3.7.6-5.7c1.3-6.3,4.2-11.4,8.6-15.3,4.4-3.9,9.8-5.8,16.2-5.8s12.1,2.6,14.5,7.7l4.5-21.6h4.1l-11.7,55.1h-4.1ZM778.3,580.8c-5,0-9.2,1.6-12.7,4.9s-5.8,7.4-6.8,12.4c-.4,1.7-.6,3.3-.6,4.8,0,3.9,1.1,6.9,3.4,9.1,2.2,2.2,5.4,3.2,9.4,3.2s9.3-1.6,13-4.9,6.1-7.3,7.2-12.3c.4-1.8.6-3.5.6-5.1,0-4-1.2-7-3.6-9.1-2.4-2.1-5.7-3.1-9.9-3.1Z"/>
    <path class="st3" d="M806.4,599.8c-.2,1.4-.3,2.7-.3,4,0,7.6,4.5,11.5,13.4,11.5s13.7-3.2,17.5-9.7h4.2c-4.7,9-12.3,13.5-22.7,13.5s-9.1-1.2-11.9-3.5c-3.1-2.5-4.6-6.2-4.6-11s.2-3.9.7-6.1c1.3-6.2,4.2-11.3,8.8-15.1,4.5-3.8,10-5.8,16.2-5.8s9,1.2,12,3.5c3.4,2.5,5,6.2,5,11s-.2,3.1-.6,4.9l-.6,2.8h-37.1ZM826.9,581.4c-4.7,0-8.7,1.3-12.2,3.9-3.5,2.6-5.9,6.2-7.4,10.7h32.5c.2-1,.2-2,.2-3,0-3.8-1.2-6.7-3.7-8.8-2.3-1.9-5.5-2.8-9.4-2.8Z"/>
    <path class="st3" d="M851.2,618.3c-1,0-1.5-.4-1.5-1.3v-4.5c0-.9.5-1.3,1.5-1.3s1.5.4,1.5,1.3v4.5c0,.9-.5,1.3-1.5,1.3Z"/>
    <path class="st3" d="M921.4,593.6h-21.1v24.5h-2.9v-55.1h24.9c13,0,19.5,5.1,19.5,15.4s-2.2,9.1-6.7,11.8c-3.6,2.2-8.2,3.3-13.7,3.3ZM922.7,565.8h-22.5v25.1h22.6c4.3,0,7.9-.9,10.8-2.8,3.4-2.2,5.1-5.4,5.1-9.4,0-8.6-5.3-12.8-16-12.8Z"/>
    <path class="st3" d="M953.2,587.1c.9-1.9,2.2-3.7,4.1-5.3,3.5-2.9,7.9-4.3,13.2-4.3v2.7c-6.2,0-10.8,2.4-13.7,7.1-2.4,3.9-3.6,8.9-3.6,15v15.8h-2.9v-39.6h2.9v8.6Z"/>
    <path class="st3" d="M996.5,619.1c-6.3,0-11.3-1.9-14.9-5.8-3.6-3.7-5.4-8.7-5.4-14.9s1.9-11.3,5.6-15.1c3.7-3.8,8.7-5.7,14.9-5.7s11.2,1.9,14.9,5.7c3.7,3.8,5.5,8.8,5.5,15.1s-1.9,11.2-5.6,15c-3.7,3.8-8.7,5.7-14.9,5.7ZM996.6,580.2c-5.4,0-9.7,1.7-12.8,5-3.1,3.3-4.7,7.7-4.7,13.2s1.6,9.8,4.7,13.1c3.1,3.3,7.4,5,12.8,5s9.6-1.7,12.8-5,4.8-7.7,4.8-13.1-1.6-9.9-4.7-13.2c-3.1-3.3-7.4-4.9-12.9-4.9Z"/>
    <path class="st3" d="M1033.2,583.2v34.9h-2.8l-.2-34.9h-8v-2.8h8v-12.2h2.9v12.2h8.2v2.8h-8.2Z"/>
    <path class="st3" d="M1049.3,599.2c.3,11.4,6,17.1,16.9,17.1s6.9-.8,9.8-2.5c2.8-1.7,4.9-4.1,6.1-7.4h3c-1.4,4.5-3.9,7.8-7.5,9.8-3.2,1.8-7.1,2.8-11.6,2.8-6.5,0-11.5-1.9-14.9-5.7-3.1-3.6-4.7-8.6-4.7-14.9s1.8-11.2,5.4-15.1c3.6-3.9,8.5-5.8,14.6-5.8s10.9,1.7,14.5,5.2c3.6,3.5,5.4,8.2,5.4,14.1v2.3h-37.1ZM1066.4,580.2c-5,0-9,1.5-12,4.4-3,3-4.7,6.9-5.1,11.9h33.7c-.1-5-1.7-8.9-4.6-11.9-3-3-7-4.4-11.9-4.4Z"/>
    <path class="st3" d="M1111.6,632.7c-4.7,0-8.6-.9-11.6-2.8-3.6-2.2-5.5-5.8-5.8-10.6h2.9c.6,7.1,5.4,10.7,14.5,10.7s15.8-4.5,15.8-13.6v-7.3c-1.6,2.8-3.9,4.9-6.9,6.4-3,1.5-6.2,2.3-9.6,2.3-5.9,0-10.5-1.9-13.9-5.6-3.4-3.7-5.1-8.5-5.1-14.4s1.7-11,5.2-14.7c3.5-3.7,8.3-5.6,14.4-5.6s6.6.8,9.3,2.4c3,1.6,5.2,3.9,6.7,6.7v-8.1h2.9v38c0,10.8-6.3,16.2-18.8,16.2ZM1111.3,580.2c-5,0-9.1,1.7-12.2,5.1-2.9,3.3-4.3,7.4-4.3,12.4s1.3,9.1,4,12.3c2.9,3.4,6.8,5.1,11.9,5.1s9.2-1.6,12.3-4.9c3-3.1,4.5-7.2,4.5-12.3s-1.5-9.2-4.4-12.6c-2.9-3.4-6.9-5.2-11.8-5.2Z"/>
    <path class="st3" d="M1158.3,632.7c-4.7,0-8.6-.9-11.6-2.8-3.6-2.2-5.5-5.8-5.8-10.6h2.9c.6,7.1,5.4,10.7,14.5,10.7s15.8-4.5,15.8-13.6v-7.3c-1.6,2.8-3.9,4.9-6.9,6.4-3,1.5-6.2,2.3-9.6,2.3-5.9,0-10.5-1.9-13.9-5.6-3.4-3.7-5.1-8.5-5.1-14.4s1.7-11,5.2-14.7c3.5-3.7,8.3-5.6,14.4-5.6s6.6.8,9.3,2.4c3,1.6,5.2,3.9,6.7,6.7v-8.1h2.9v38c0,10.8-6.3,16.2-18.8,16.2ZM1158,580.2c-5,0-9.1,1.7-12.2,5.1-2.9,3.3-4.3,7.4-4.3,12.4s1.3,9.1,4,12.3c2.9,3.4,6.8,5.1,11.9,5.1s9.2-1.6,12.3-4.9c3-3.1,4.5-7.2,4.5-12.3s-1.5-9.2-4.4-12.6c-2.9-3.4-6.9-5.2-11.8-5.2Z"/>
    <path class="st3" d="M1188.8,570.2c-.6,0-1-.4-1.3-1.1v-5.5c.3-.8.8-1.2,1.3-1.2s1,.4,1.6,1.1v5.7c-.5.7-1.1,1.1-1.6,1.1ZM1187.5,618.2v-40h2.9v40h-2.9Z"/>
    <path class="st3" d="M1235.1,618.2v-8.9c-3.5,6.6-9.2,9.8-17.1,9.8s-10.9-2-14.4-6c-3.3-3.7-5-8.6-5-14.6s1.7-11.1,5-14.9c3.6-4,8.5-6,14.7-6s13.6,3.2,16.8,9.6v-9.4h2.9v40.5h-2.9ZM1217.9,580.2c-5.2,0-9.3,1.8-12.3,5.4-2.8,3.4-4.1,7.6-4.1,12.8s1.4,9.4,4.1,12.7c3,3.5,7.1,5.3,12.3,5.3s9.4-1.8,12.6-5.3c3.1-3.4,4.6-7.6,4.6-12.7s-1.5-10-4.5-13.3c-3-3.3-7.2-4.9-12.8-4.9Z"/>
    <path class="st3" d="M1304.4,618.2v-26.1c0-7.9-3.7-11.9-11.2-11.9s-7.3,1.2-9.7,3.5c-2.4,2.4-3.7,5.5-3.7,9.5v24.9h-2.9v-26.1c0-7.9-3.8-11.9-11.5-11.9s-7.6,1.6-10.1,4.9c-2.1,2.9-3.2,6.5-3.2,10.8v22.3h-2.9v-39.6h2.9v6.9c2.6-5.3,7.3-7.9,14.1-7.9s10.7,2.7,12.8,8c2.4-5.4,7.1-8,14.1-8s14.3,4.6,14.3,13.7v26.9h-2.9Z"/>
    <path class="st3" d="M1336,619.1c-6.3,0-11.3-1.9-14.9-5.8-3.6-3.7-5.4-8.7-5.4-14.9s1.9-11.3,5.6-15.1c3.7-3.8,8.7-5.7,14.9-5.7s11.2,1.9,14.9,5.7c3.7,3.8,5.5,8.8,5.5,15.1s-1.9,11.2-5.6,15c-3.7,3.8-8.7,5.7-14.9,5.7ZM1336.1,580.2c-5.4,0-9.7,1.7-12.8,5-3.1,3.3-4.7,7.7-4.7,13.2s1.6,9.8,4.7,13.1c3.1,3.3,7.4,5,12.8,5s9.6-1.7,12.8-5,4.8-7.7,4.8-13.1-1.6-9.9-4.7-13.2c-3.1-3.3-7.4-4.9-12.9-4.9Z"/>
    <path class="st3" d="M1397.2,570.2c-.6,0-1-.4-1.3-1.1v-5.5c.3-.8.8-1.2,1.3-1.2s1,.4,1.6,1.1v5.7c-.5.7-1.1,1.1-1.6,1.1ZM1395.9,618.2v-40h2.9v40h-2.9Z"/>
    <path class="st3" d="M1409.4,618.2v-55.1h2.9v55.1h-2.9Z"/>
    <path class="st3" d="M1469.4,579.4l-.5,2.6h9l-.9,3.9h-9l-6.8,32.3h-4.1l6.8-32.3h-5.8l.9-3.9h5.8l.5-2.6c2.2-10.2,10.2-15.4,24-15.4l-.8,3.7c-11,0-17.3,3.9-19,11.6Z"/>
    <path class="st3" d="M1508.9,618.3l1.1-5.5c-4.1,4.2-9.3,6.3-15.8,6.3s-7.4-.8-9.8-2.4c-2.9-1.9-4.3-4.8-4.3-8.6s.1-2.5.4-3.8l5.5-25.7h4.1l-5.4,25.7c-.3,1.1-.4,2.2-.4,3.2,0,5.3,3.6,7.9,10.7,7.9s15.6-5.1,17.8-15.3l4.5-21.4h4.1l-8.4,39.7h-4.1Z"/>
    <path class="st3" d="M1539.1,584.1l-7.2,34.1h-4l7.1-34.1h-8l.8-3.8h8l2.6-11.9h4.1l-2.6,11.9h8.2l-.8,3.8h-8.2Z"/>
    <path class="st3" d="M1577.8,618.3l1.1-5.5c-4.1,4.2-9.3,6.3-15.8,6.3s-7.4-.8-9.8-2.4c-2.9-1.9-4.3-4.8-4.3-8.6s.1-2.5.4-3.8l5.5-25.7h4.1l-5.4,25.7c-.3,1.1-.4,2.2-.4,3.2,0,5.3,3.6,7.9,10.7,7.9s15.6-5.1,17.8-15.3l4.5-21.4h4.1l-8.4,39.7h-4.1Z"/>
    <path class="st3" d="M1599.1,602.3l-3.4,15.9h-4.1l8.4-39.7h4.1l-1.5,6.7c1.1-1.2,2.4-2.4,3.8-3.3,4.2-2.9,9.2-4.3,15.1-4.3l-.8,3.8c-11.5,0-18.8,7-21.7,20.9Z"/>
    <path class="st3" d="M1638.2,619.1c-5.1,0-9.2-1.3-12.3-3.9-3.2-2.7-4.9-6.6-4.9-11.5s.2-3.4.6-5.3c1.4-6.3,4.3-11.3,9-15.1,4.6-3.8,10.1-5.7,16.5-5.7s9.2,1.3,12.3,3.8c3.3,2.7,5,6.5,5,11.5s-.2,3.6-.6,5.5c-1.4,6.3-4.3,11.3-9,15.1-4.6,3.8-10.1,5.6-16.5,5.6ZM1657.7,586c-1.6-2.1-3.2-3.5-5-4.1-1.2-.4-3.3-.6-6.4-.6-5.3,0-9.7,1.5-13.4,4.6-3.7,3.1-6,7.2-7.1,12.4-.3,1.6-.5,3.1-.5,4.5,0,4,1.3,7.1,3.9,9.3,2.4,2.1,5.7,3.1,9.9,3.1s9.6-1.5,13.3-4.6c3.7-3.1,6.1-7.2,7.1-12.3.3-1.6.5-3.1.5-4.5,0-3-.8-5.6-2.4-7.8Z"/>
    <path class="st3" d="M1671.5,618.3c-1,0-1.5-.4-1.5-1.3v-4.5c0-.9.5-1.3,1.5-1.3s1.5.4,1.5,1.3v4.5c0,.9-.5,1.3-1.5,1.3Z"/>
  </g>
  <g>
    <path class="st0" d="M919.9,187.9c-16.1,58.7-51.6,70.1-51.6,70.1h0l-107.5-219.7s71-29.6,111.8,53.7l47.3,95.9"/>
    <path class="st1" d="M928.4,30.3c13.5,19.7,41.4,31.6,41.4,31.6,28.9-16.7,36.3-61.6,36.3-61.6,0,0-54.7-5.4-77.9,29.9"/>
    <path class="st5" d="M945.7,135.3c4.8,5,10.4,10.1,17.1,15.3,34.3,26.2,34.3,54,34.3,54h0l-30.4,61.9s-21.1,43.5-47.2,43.5-29.3-2.9-56.1-61.7c0,0,20.5,6.4,56.4-60.3l25.8-52.6"/>
    <path class="st6" d="M997.1,204.5s37.5-58.8,13.4-107.2c-5.3-10.7-19.4-21.6-29.5-28.4h0c41.2-54.3,97.7-30.6,97.7-30.6l-81.6,166.3"/>
    <path class="st2" d="M928.4,30.3c13.5,19.7,41.4,31.6,41.4,31.6,0,0,32,17.9,40.8,35.4,24.1,48.4-13.4,107.2-13.4,107.2,0,0,0-27.8-34.3-54-9.3-7.1-16.7-14.4-22.4-21.1-15-17.8-23.2-40.4-22.5-63.7.4-15,4.3-26.6,10.2-35.6"/>
  </g>
</svg>