<?xml version="1.0" encoding="UTF-8"?>
<svg id="Livello_1" xmlns="http://www.w3.org/2000/svg" version="1.1" viewBox="0 0 594.7 632.7">
  <!-- Generator: Adobe Illustrator 30.0.0, SVG Export Plug-In . SVG Version: 2.1.1 Build 123)  -->
  <g>
    <path d="M442,436l-56.8,115.8s-20.2,41.4-49.7,65.1c-.1,0-.2.2-.3.3-3.4,2.7-7,5.2-10.6,7.4-9.3,5.2-20.1,8.2-31.6,8.2-18.9,0-35.9-8.1-47.7-20.9-.9-1.1-1.9-2.2-2.8-3.3-.3-.4-.6-.8-1-1.2,0,0,0,0,0,0-12-14.9-25.8-38-42.2-74,0,0,52.9-25.9,98.2-128.5l48.3-98.4c8.9,9.3,19.5,19,32,28.6,64.1,49,64.2,101,64.2,101Z"/>
    <path d="M452.8,415.9c-7.4-29.3-15.3-52.4-39-76.2l-58.1-52.4c-55.6-50.1-67.8-127-35.1-196.9,3.2,4,6.3,7.7,9.4,11t0,0s0,0,0,0c22.6,24.7,43.3,34.9,72.2,51.7,0,0,0,0,0,0,9.6,5.6,20.2,12,32,20,85.7,57.5,61.3,168.4,18.5,242.6Z"/>
    <path d="M506.3,304.4c4.4-25.7,7-37.5.8-66.4-6.6-30.7-27.3-64.9-64.8-87.6,40.9-35,99-44.8,152.4-25.5l-88.5,179.5Z"/>
    <path d="M474.2.2c-9.7,91.5-60.1,123.5-60.1,123.5-3.3-.4-6.5-1-9.6-1.7-8.4-3-16.7-6.2-24.7-10.1-16.1-7.8-30-18.8-41.4-32.1,0,0,0,0,0,0-3.8-5.2-5.6-8.7-5.6-8.7C388.6-7,474.2.2,474.2.2Z"/>
  </g>
  <path d="M286.2,382.3c-.6,2.3-1.2,4.5-1.8,6.8-11.4,39.5-33.7,74.5-63.3,101.5,0,0-.1.1-.2.2-9.5,8.6-19.8,16.5-30.7,23.3L0,124.8s82.2-35.2,157.9,31.8c18.2,16.1,32.8,35.7,43.7,57.4l84.6,168.4Z"/>
</svg>